<svg width="77" height="77" viewBox="0 0 77 77" fill="none" xmlns="http://www.w3.org/2000/svg">
<path fill-rule="evenodd" clip-rule="evenodd" d="M8 0C3.58173 0 0 3.58173 0 8V69C0 73.0796 3.05368 76.446 7 76.9381V50C7 46.7 9.83499 44 13.3 44C15.0397 44 16.45 42.5897 16.45 40.85V38C16.45 29.6 23.38 23 32.2 23C41.02 23 47.95 29.6 47.95 38V40.85C47.95 42.5897 49.3603 44 51.1 44C54.565 44 57.4 46.7 57.4 50V77H69C73.4183 77 77 73.4183 77 69V8C77 3.58173 73.4183 0 69 0H8ZM49.3454 77C50.4433 75.6304 51.1 73.8919 51.1 72V58C51.1 53.5817 47.5183 50 43.1 50H21.3C16.8817 50 13.3 53.5817 13.3 58V72C13.3 73.8919 13.9567 75.6304 15.0546 77H49.3454ZM25.9 65C25.9 68.3 28.735 71 32.2 71C35.665 71 38.5 68.3 38.5 65C38.5 61.7 35.665 59 32.2 59C28.735 59 25.9 61.7 25.9 65ZM22.75 38C22.75 32.9 26.845 29 32.2 29C37.555 29 41.65 32.9 41.65 38C41.65 41.3137 38.9637 44 35.65 44H28.75C25.4363 44 22.75 41.3137 22.75 38ZM66.85 41C68.5897 41 70 42.4103 70 44.15V55.85C70 57.5897 68.5897 59 66.85 59C65.1103 59 63.7 57.5897 63.7 55.85V44.15C63.7 42.4103 65.1103 41 66.85 41ZM67 65C68.6569 65 70 66.3431 70 68C70 69.6569 68.6569 71 67 71H66.7C65.0432 71 63.7 69.6569 63.7 68C63.7 66.3431 65.0432 65 66.7 65H67Z" fill="#58415B"/>
</svg>
